<svg width="151" height="151" viewBox="0 0 151 151" fill="none" xmlns="http://www.w3.org/2000/svg">
<path d="M75.5 128.572C103.819 128.572 126.776 119.566 126.776 108.457C126.776 97.3477 103.819 88.3418 75.5 88.3418C47.1809 88.3418 24.2236 97.3477 24.2236 108.457C24.2236 119.566 47.1809 128.572 75.5 128.572Z" fill="#F9FAFB"/>
<path d="M54.9528 48.2773L52.9306 60.9579H46.3584L48.3806 48.2773H54.9528Z" fill="#F7F9FC"/>
<path d="M87.6348 61.3809C88.0723 61.3809 88.3723 61.7225 88.3043 62.1447C88.2376 62.567 87.8293 62.91 87.3904 62.91H61.7029C61.2654 62.91 60.964 62.567 61.0321 62.1447C61.0987 61.7225 61.5084 61.3809 61.9459 61.3809H87.6348Z" fill="#667185"/>
<path d="M89.7695 52.325H104.735L102.49 66.3987L101.601 71.9737H62.2181C60.7834 71.9737 59.6764 71.0459 59.5181 69.7084L59.3959 68.6625C59.2375 67.3264 58.1306 66.3973 56.6959 66.3973H45.4917L46.1153 62.4834H54.2723L56.782 46.7473H48.625L50.0778 37.6348H91.8514L92.0709 37.8848L89.7695 52.325ZM88.2084 57.7875C88.6459 57.7875 89.0542 57.4459 89.1209 57.0237C89.1875 56.6014 88.8889 56.2584 88.4514 56.2584H62.7625C62.325 56.2584 61.9153 56.6014 61.8473 57.0237C61.7806 57.4459 62.0806 57.7875 62.5181 57.7875H88.2084ZM87.3917 62.9098C87.8292 62.9098 88.2375 62.5667 88.3056 62.1445C88.3723 61.7223 88.0736 61.3806 87.6361 61.3806H61.9459C61.5084 61.3806 61.0986 61.7223 61.032 62.1445C60.9653 62.5667 61.2653 62.9098 61.7028 62.9098H87.3917ZM86.575 68.0292C87.0125 68.0292 87.4209 67.6875 87.4875 67.2653C87.5542 66.8431 87.2556 66.5 86.8181 66.5H61.1292C60.6917 66.5 60.282 66.8431 60.2139 67.2653C60.1473 67.6875 60.4473 68.0292 60.8848 68.0292H86.575Z" fill="#F7F9FC"/>
<path d="M86.8182 66.5C87.2557 66.5 87.5543 66.8431 87.4876 67.2653C87.421 67.6875 87.0126 68.0292 86.5751 68.0292H60.8862C60.4487 68.0292 60.1473 67.6875 60.2154 67.2653C60.2821 66.8431 60.6918 66.5 61.1307 66.5H86.8182Z" fill="#667185"/>
<path d="M86.8182 66.5C87.2557 66.5 87.5543 66.8431 87.4876 67.2653C87.421 67.6875 87.0126 68.0292 86.5751 68.0292H60.8862C60.4487 68.0292 60.1473 67.6875 60.2154 67.2653C60.2821 66.8431 60.6918 66.5 61.1307 66.5H86.8182Z" fill="#667185"/>
<path d="M115.025 72.4306C115.024 72.3876 115.02 72.3445 115.015 72.3015C115.013 72.2765 115.011 72.2501 115.008 72.2251C115.003 72.1779 114.995 72.1306 114.986 72.0834C114.983 72.0668 114.982 72.0501 114.978 72.0334C114.978 72.0306 114.977 72.0279 114.975 72.0237C114.965 71.9737 114.953 71.9237 114.94 71.8751C114.938 71.8626 114.935 71.8487 114.931 71.8362C114.914 71.7751 114.895 71.714 114.872 71.6543C114.872 71.6529 114.871 71.6515 114.871 71.6501C114.87 71.6473 114.868 71.6445 114.867 71.6404C114.833 71.5501 114.796 71.464 114.753 71.3793C114.749 71.3723 114.747 71.364 114.743 71.357C114.742 71.3529 114.739 71.3501 114.736 71.3459C114.697 71.2723 114.656 71.2001 114.61 71.1306C114.606 71.1237 114.602 71.1168 114.597 71.1098C114.577 71.0793 114.556 71.0487 114.535 71.0195L111.922 67.457C111.949 67.4931 111.974 67.5306 111.997 67.5681C112.043 67.6376 112.085 67.7098 112.124 67.7834C112.129 67.7945 112.135 67.8056 112.14 67.8168C112.182 67.9015 112.221 67.989 112.254 68.0779C112.256 68.082 112.258 68.0862 112.26 68.0918C112.281 68.1515 112.3 68.2126 112.318 68.2737C112.322 68.2862 112.324 68.3001 112.328 68.3126C112.34 68.3612 112.353 68.4112 112.363 68.4612C112.367 68.4806 112.37 68.5001 112.372 68.5195C112.381 68.5668 112.388 68.6126 112.395 68.6612C112.397 68.6862 112.399 68.7126 112.402 68.7376C112.406 68.7806 112.408 68.8237 112.411 68.8668C112.413 68.8945 112.413 68.9223 112.413 68.9501C112.413 68.9918 112.413 69.0348 112.411 69.0765C112.41 69.1043 112.41 69.1334 112.407 69.1626C112.404 69.2056 112.4 69.2487 112.396 69.2931C112.393 69.3209 112.39 69.3487 112.386 69.3779C112.379 69.4251 112.372 69.4709 112.363 69.5181C112.358 69.5431 112.354 69.5681 112.349 69.5931C112.336 69.6543 112.321 69.7154 112.304 69.7765C112.302 69.7876 112.299 69.7987 112.296 69.8112C112.275 69.8834 112.252 69.957 112.225 70.0293C112.217 70.0515 112.207 70.0737 112.199 70.0959C112.179 70.1473 112.158 70.1987 112.136 70.2487C112.11 70.307 112.083 70.3654 112.054 70.4251L93.3113 107.403L93.2168 107.275C93.1835 107.351 93.1474 107.425 93.1085 107.499C93.1057 107.504 93.1029 107.508 93.1015 107.514C93.064 107.585 93.0238 107.653 92.9821 107.721C92.9251 107.813 92.8654 107.9 92.8015 107.986C92.7835 108.011 92.764 108.033 92.746 108.057C92.7029 108.111 92.6599 108.165 92.614 108.218C92.5904 108.246 92.5654 108.272 92.5404 108.299C92.4988 108.343 92.4557 108.388 92.4113 108.431C92.3849 108.456 92.3599 108.482 92.3335 108.506C92.2863 108.549 92.2376 108.59 92.189 108.632C92.164 108.653 92.1404 108.674 92.1154 108.695C92.0404 108.756 91.9626 108.814 91.8821 108.868C91.7988 108.925 91.7126 108.978 91.6251 109.029C91.6015 109.043 91.5765 109.056 91.5515 109.07C91.4765 109.111 91.4001 109.15 91.3224 109.186C91.2918 109.201 91.2599 109.215 91.2293 109.229C91.2001 109.242 91.171 109.254 91.1418 109.265C91.0946 109.285 91.0474 109.303 91.0001 109.32C90.9696 109.331 90.9404 109.34 90.9099 109.351C90.8626 109.367 90.8154 109.382 90.7682 109.395C90.7349 109.404 90.7029 109.414 90.6696 109.422C90.621 109.435 90.571 109.446 90.521 109.457C90.489 109.464 90.4571 109.471 90.4265 109.478C90.3724 109.488 90.3168 109.496 90.2613 109.503C90.2349 109.507 90.2071 109.511 90.1807 109.514C90.0988 109.524 90.0154 109.531 89.9335 109.533L92.546 113.096C92.5501 113.096 92.5543 113.095 92.5585 113.095L92.5599 113.096C92.5682 113.096 92.5765 113.096 92.5863 113.096C92.6251 113.096 92.6626 113.095 92.7015 113.093C92.7182 113.092 92.7349 113.089 92.7515 113.089C92.8349 113.085 92.9182 113.076 93.0001 113.065C93.0251 113.063 93.0488 113.06 93.0738 113.057C93.1793 113.042 93.2835 113.021 93.3876 112.995C93.4126 112.989 93.4363 112.981 93.4599 112.975C93.514 112.96 93.5696 112.947 93.6238 112.929C93.6529 112.92 93.6821 112.908 93.7113 112.899C93.7335 112.892 93.7543 112.883 93.7765 112.876C93.8668 112.843 93.9557 112.808 94.0432 112.77C94.0488 112.767 94.0543 112.763 94.0613 112.761C94.0668 112.758 94.0738 112.757 94.0807 112.753C94.0807 112.753 94.0807 112.751 94.0793 112.751C94.0793 112.751 94.0793 112.753 94.0807 112.753C94.1779 112.708 94.2724 112.658 94.3654 112.606C94.3682 112.604 94.3696 112.603 94.3724 112.601C94.4001 112.586 94.4251 112.568 94.4515 112.551C94.514 112.514 94.5765 112.476 94.6376 112.435C94.6432 112.432 94.6474 112.429 94.6529 112.425C94.6904 112.4 94.7251 112.371 94.7613 112.343C94.8043 112.311 94.8474 112.282 94.8876 112.249C94.8932 112.245 94.8974 112.242 94.9029 112.238C94.9418 112.207 94.9765 112.172 95.014 112.14C95.046 112.113 95.0793 112.086 95.1099 112.057C95.1168 112.05 95.1238 112.045 95.1307 112.038C95.1321 112.036 95.1321 112.036 95.1335 112.035C95.1349 112.033 95.1349 112.033 95.1363 112.032C95.1446 112.025 95.1529 112.017 95.1599 112.01C95.1779 111.993 95.1918 111.974 95.2099 111.957C95.2571 111.91 95.3057 111.863 95.3501 111.813C95.3626 111.799 95.3738 111.783 95.3863 111.77C95.396 111.758 95.4085 111.747 95.4182 111.736C95.4279 111.725 95.4376 111.713 95.4474 111.701C95.4793 111.663 95.5099 111.624 95.5404 111.583C95.546 111.576 95.5529 111.57 95.5585 111.561C95.5599 111.558 95.5613 111.556 95.564 111.553C95.6279 111.468 95.6876 111.379 95.7446 111.289C95.7501 111.279 95.7571 111.271 95.7626 111.263C95.7682 111.254 95.7724 111.245 95.7779 111.236C95.8224 111.163 95.864 111.089 95.9029 111.011L114.674 73.9834C114.699 73.9334 114.724 73.882 114.746 73.832C114.75 73.8237 114.753 73.8154 114.756 73.8084C114.778 73.757 114.799 73.7056 114.818 73.6556C114.827 73.6334 114.836 73.6112 114.845 73.589C114.871 73.5168 114.895 73.4431 114.915 73.3709C114.918 73.3598 114.921 73.3487 114.924 73.3362C114.94 73.2751 114.956 73.214 114.968 73.1529C114.974 73.1279 114.978 73.1029 114.982 73.0779C114.99 73.0306 114.999 72.9834 115.006 72.9376C115.01 72.9098 115.013 72.882 115.015 72.8529C115.02 72.8098 115.024 72.7654 115.027 72.7223C115.028 72.6931 115.029 72.6654 115.031 72.6362C115.032 72.5931 115.032 72.5515 115.032 72.5098C115.027 72.4862 115.027 72.4584 115.025 72.4306Z" fill="#667185"/>
<path d="M92.3904 113.42L89.332 109.249L89.9181 109.225C89.9931 109.222 90.0681 109.215 90.1431 109.207C90.1556 109.206 90.1681 109.204 90.1793 109.201L90.2168 109.196C90.2668 109.189 90.3167 109.182 90.3667 109.172C90.3848 109.17 90.4043 109.165 90.4223 109.161L90.4542 109.154C90.4987 109.145 90.5445 109.135 90.589 109.124C90.614 109.117 90.6376 109.11 90.6626 109.103L90.6792 109.097C90.7223 109.085 90.7667 109.072 90.8098 109.057C90.8376 109.047 90.8654 109.038 90.8931 109.028C90.9362 109.013 90.9806 108.996 91.0237 108.978C91.0556 108.965 91.0792 108.956 91.1042 108.945C91.1251 108.936 91.1431 108.926 91.1626 108.917L91.1904 108.904C91.2626 108.871 91.332 108.835 91.4015 108.797L91.4306 108.782C91.4431 108.775 91.457 108.768 91.4695 108.761C91.5598 108.708 91.6362 108.661 91.7056 108.613C91.7737 108.565 91.8431 108.514 91.9195 108.453C91.932 108.442 91.9459 108.432 91.9584 108.421L91.9876 108.396C92.032 108.358 92.0765 108.32 92.1195 108.279C92.1404 108.26 92.1598 108.24 92.1806 108.221L92.1917 108.21C92.232 108.171 92.2709 108.129 92.3098 108.089C92.332 108.065 92.3543 108.04 92.3765 108.015C92.4195 107.967 92.4584 107.918 92.4987 107.868L92.5209 107.84C92.5306 107.828 92.5404 107.815 92.5501 107.803C92.6112 107.722 92.6668 107.64 92.7154 107.56C92.7543 107.497 92.7904 107.435 92.8251 107.371L92.8306 107.358C92.8668 107.29 92.9001 107.222 92.9292 107.153L93.1459 106.656L93.2598 106.811L111.778 70.2834C111.806 70.2293 111.829 70.1765 111.853 70.1223C111.874 70.0751 111.892 70.0293 111.91 69.982L111.933 69.9223C111.957 69.8556 111.979 69.7904 111.997 69.7237L112.004 69.6931C112.02 69.6376 112.033 69.582 112.045 69.5279L112.057 69.4612C112.065 69.4181 112.072 69.3765 112.078 69.3348C112.081 69.3168 112.082 69.2973 112.085 69.2779L112.086 69.2598C112.09 69.2209 112.095 69.182 112.096 69.1431C112.097 69.1181 112.099 69.0931 112.099 69.0681C112.1 69.0293 112.1 68.9918 112.1 68.9543C112.1 68.9293 112.1 68.9056 112.099 68.8806C112.097 68.8431 112.095 68.8043 112.09 68.7668L112.088 68.7418C112.086 68.7279 112.085 68.714 112.083 68.6987C112.078 68.657 112.071 68.6154 112.064 68.5737L112.056 68.5209C112.047 68.4765 112.036 68.4334 112.025 68.389L112.018 68.3612C112.001 68.3001 111.985 68.2473 111.965 68.1945L111.963 68.1876C111.933 68.1084 111.901 68.0334 111.861 67.9543L111.851 67.9334C111.815 67.864 111.778 67.8001 111.736 67.7362C111.714 67.7029 111.693 67.6709 111.671 67.639L112.175 67.2695C112.176 67.2709 112.178 67.2723 112.178 67.2737L114.788 70.832C114.813 70.8654 114.836 70.8987 114.858 70.9334L114.878 70.9668C114.924 71.0362 114.97 71.114 115.01 71.1904L115.02 71.207C115.028 71.2237 115.033 71.2376 115.039 71.2501C115.082 71.3348 115.122 71.4265 115.156 71.5195L115.17 71.5584C115.189 71.614 115.211 71.682 115.231 71.7501C115.233 71.7626 115.236 71.7737 115.239 71.7862C115.256 71.8487 115.268 71.9043 115.279 71.9612L115.283 71.9793C115.285 71.9862 115.288 72.0015 115.289 72.0168C115.3 72.0793 115.308 72.132 115.314 72.1848C115.317 72.207 115.318 72.2293 115.321 72.2515L115.322 72.2709C115.326 72.3181 115.331 72.3654 115.332 72.414C115.333 72.4445 115.333 72.4751 115.335 72.5056C115.336 72.5515 115.335 72.5987 115.333 72.6473C115.332 72.6793 115.331 72.7098 115.329 72.7418C115.326 72.7904 115.322 72.8376 115.317 72.8862L115.315 72.9029C115.313 72.9279 115.31 72.9543 115.307 72.9793C115.3 73.0306 115.29 73.082 115.282 73.1334L115.278 73.157C115.275 73.1765 115.271 73.1973 115.267 73.2168C115.253 73.2834 115.236 73.3515 115.218 73.4181C115.214 73.4348 115.211 73.4459 115.208 73.4556C115.186 73.5348 115.16 73.6154 115.131 73.6945C115.125 73.7112 115.118 73.7279 115.111 73.7445L115.103 73.7654C115.081 73.8209 115.058 73.8765 115.035 73.932C115.032 73.9404 115.028 73.9501 115.024 73.9598C114.999 74.014 114.974 74.0681 114.946 74.1237L96.1751 111.151C96.1362 111.226 96.0918 111.307 96.039 111.396C96.0348 111.404 96.0293 111.414 96.0237 111.424C96.0168 111.435 96.0098 111.446 96.0029 111.456C95.9404 111.554 95.8793 111.645 95.8168 111.729L95.8223 111.736L95.6501 111.936L95.6487 111.938L95.4098 112.217L95.3987 112.204C95.3904 112.214 95.3806 112.222 95.3723 112.232L95.3181 112.283C95.2945 112.306 95.2709 112.325 95.2473 112.346L95.1792 112.404C95.1515 112.429 95.1237 112.454 95.0945 112.478L95.0723 112.495C95.0445 112.517 95.0098 112.543 94.9751 112.568L94.9056 112.62C94.8792 112.64 94.8515 112.661 94.8237 112.681L94.8001 112.696C94.7431 112.735 94.6765 112.775 94.6098 112.815L94.582 112.833C94.5681 112.843 94.5529 112.851 94.539 112.861L94.5487 112.874L94.2251 113.025C94.2195 113.028 94.214 113.031 94.2084 113.032L93.9806 113.138L93.9751 113.131C93.9445 113.142 93.9126 113.154 93.8793 113.167L93.7792 113.201C93.757 113.21 93.7362 113.217 93.714 113.224C93.6668 113.239 93.6181 113.251 93.5709 113.264L93.514 113.286C93.4959 113.292 93.4779 113.297 93.4584 113.301C93.3459 113.329 93.2306 113.351 93.1168 113.37C93.0973 113.372 93.0792 113.375 93.0598 113.376L93.0362 113.379C92.9445 113.392 92.8529 113.4 92.7654 113.404C92.7445 113.407 92.7279 113.408 92.7112 113.41C92.6681 113.411 92.6265 113.413 92.5848 113.413H92.5556H92.5501L92.3904 113.42ZM90.5001 109.783L92.7001 112.782C92.7112 112.781 92.7209 112.779 92.732 112.779C92.807 112.775 92.8834 112.768 92.9584 112.758L93.0251 112.75C93.1209 112.736 93.2167 112.717 93.3112 112.693L93.4154 112.665C93.4529 112.656 93.4917 112.646 93.5292 112.633C93.5431 112.629 93.557 112.624 93.5709 112.62L93.6695 112.585C93.7654 112.55 93.8431 112.518 93.914 112.486C93.9126 112.486 93.9209 112.482 93.9292 112.478L93.9542 112.468C94.039 112.429 94.1251 112.385 94.2098 112.336L94.2237 112.328C94.2292 112.324 94.2376 112.32 94.2459 112.314C94.2598 112.304 94.2751 112.296 94.289 112.286C94.3487 112.25 94.4056 112.217 94.4598 112.179L94.482 112.165C94.4917 112.158 94.5098 112.145 94.5279 112.131L94.6098 112.07C94.6362 112.05 94.664 112.031 94.6904 112.01L94.7112 111.995C94.7251 111.983 94.7445 111.965 94.764 111.947L94.8487 111.874C94.864 111.861 94.8806 111.847 94.8945 111.833L94.9529 111.776C94.964 111.764 94.9751 111.751 94.9862 111.74L95.0154 111.711C95.0501 111.676 95.0834 111.643 95.1167 111.607C95.132 111.589 95.1404 111.578 95.1487 111.568C95.1584 111.557 95.1667 111.547 95.1765 111.539L95.414 111.738L95.1792 111.536L95.2056 111.506C95.2334 111.472 95.2584 111.439 95.2848 111.406C95.2945 111.392 95.3015 111.385 95.307 111.378L95.3126 111.37C95.3668 111.297 95.4209 111.218 95.4765 111.128C95.482 111.12 95.489 111.108 95.4959 111.099C95.4959 111.097 95.5015 111.089 95.5056 111.079C95.5459 111.013 95.5848 110.945 95.6209 110.874L114.392 73.8473C114.415 73.8015 114.438 73.7543 114.458 73.7084L114.468 73.6862C114.489 73.6404 114.507 73.5931 114.525 73.5473L114.549 73.4876C114.572 73.4209 114.595 73.3556 114.613 73.289L114.621 73.2584C114.636 73.2043 114.65 73.1487 114.661 73.0931L114.674 73.0251C114.682 72.9834 114.689 72.9404 114.695 72.8987C114.697 72.8793 114.699 72.8598 114.701 72.8404L114.703 72.8237C114.707 72.7848 114.711 72.7459 114.713 72.707C114.714 72.682 114.715 72.657 114.715 72.6306C114.717 72.5931 114.717 72.5556 114.717 72.5181C114.717 72.4931 114.717 72.4681 114.715 72.4445C114.714 72.407 114.711 72.3681 114.707 72.3306L114.706 72.307C114.704 72.2918 114.703 72.2765 114.701 72.2612C114.696 72.2195 114.69 72.1793 114.682 72.1376L114.675 72.0918C114.674 72.0862 114.672 72.082 114.672 72.0765C114.665 72.0404 114.654 71.9973 114.643 71.9529L114.636 71.9251C114.621 71.8668 114.604 71.8154 114.586 71.764C114.585 71.7612 114.582 71.7556 114.581 71.7487C114.553 71.6737 114.521 71.5987 114.481 71.5181L114.465 71.4876C114.433 71.4265 114.397 71.3654 114.356 71.3001L114.338 71.2709C114.326 71.2556 114.308 71.2293 114.29 71.2043L112.731 69.0765C112.731 69.0793 112.731 69.0834 112.731 69.0862C112.729 69.1181 112.728 69.1501 112.726 69.182C112.724 69.2293 112.72 69.2779 112.714 69.3265L112.713 69.3445C112.71 69.3695 112.707 69.3945 112.704 69.4195C112.697 69.4723 112.688 69.5237 112.678 69.5765L112.674 69.6001C112.671 69.6195 112.667 69.639 112.663 69.6584C112.649 69.7265 112.632 69.7931 112.613 69.8612L112.604 69.8959C112.581 69.9779 112.556 70.057 112.526 70.1362C112.521 70.1529 112.514 70.1695 112.507 70.1862L112.499 70.207C112.476 70.2626 112.456 70.3181 112.431 70.3737C112.403 70.4376 112.374 70.5015 112.34 70.564L93.364 107.995L93.2654 107.86C93.2612 107.867 93.257 107.875 93.2515 107.882C93.1931 107.978 93.1265 108.074 93.0556 108.17C93.0418 108.188 93.0279 108.206 93.014 108.224L92.9959 108.247C92.9487 108.307 92.9015 108.365 92.8515 108.422C92.8265 108.451 92.8001 108.481 92.7723 108.51C92.7265 108.558 92.6806 108.606 92.6334 108.653L92.6223 108.664C92.5987 108.688 92.5737 108.711 92.5501 108.735C92.4987 108.782 92.4473 108.826 92.3945 108.871L92.3709 108.892C92.3529 108.907 92.3348 108.924 92.3154 108.938C92.2265 109.008 92.1445 109.07 92.064 109.125C91.982 109.182 91.8918 109.239 91.7876 109.299C91.7695 109.31 91.7501 109.32 91.732 109.329L91.7084 109.342C91.6279 109.386 91.5445 109.429 91.4598 109.468L91.4348 109.479C91.4098 109.492 91.3834 109.503 91.3584 109.515C91.3306 109.528 91.3001 109.54 91.2709 109.551C91.2126 109.575 91.1612 109.595 91.1098 109.614C91.0779 109.625 91.0445 109.638 91.0126 109.649C90.9612 109.665 90.9098 109.681 90.8584 109.696L90.8418 109.7C90.8112 109.708 90.7806 109.718 90.7515 109.725C90.6987 109.739 90.6445 109.75 90.5904 109.763L90.5626 109.768C90.539 109.776 90.5195 109.781 90.5001 109.783Z" fill="#F9FAFB"/>
<path d="M109.695 66.3984C111.86 66.3984 113.061 68.4457 112.057 70.4248L93.2862 107.453C92.6543 108.698 91.3085 109.539 89.9446 109.537C91.3182 109.48 92.6515 108.568 93.2168 107.275L106.972 75.8207C107.821 73.8804 106.608 71.9734 104.524 71.9734H101.599L102.488 66.3984H109.695Z" fill="#D0D5DD"/>
<path d="M89.9473 109.85C89.9459 109.85 89.9445 109.85 89.9432 109.85L89.9307 109.225C91.1848 109.174 92.4182 108.321 92.9293 107.15L106.685 75.6962C107.051 74.8573 107.01 73.9893 106.568 73.3157C106.14 72.6629 105.396 72.2879 104.522 72.2879H101.232L102.221 66.0879H109.693C110.815 66.0879 111.767 66.5893 112.304 67.4657C112.854 68.3615 112.865 69.5226 112.335 70.5684L93.564 107.593C92.8793 108.943 91.4265 109.85 89.9473 109.85ZM101.967 71.6615H104.525C105.613 71.6615 106.549 72.1393 107.093 72.9726C107.651 73.8268 107.713 74.9101 107.258 75.9462L96.9043 99.6226L111.778 70.2837C112.217 69.4198 112.214 68.5101 111.772 67.7907C111.351 67.1046 110.595 66.7115 109.695 66.7115H102.756L101.967 71.6615Z" fill="#F9FAFB"/>
<path d="M109.854 77.9857C109.851 77.9385 109.849 77.8913 109.843 77.8441C109.84 77.8204 109.838 77.7968 109.835 77.7732C109.829 77.7316 109.824 77.6899 109.815 77.6482C109.813 77.6357 109.813 77.6232 109.81 77.6107C109.807 77.5982 109.804 77.5871 109.801 77.5746C109.793 77.5371 109.785 77.4982 109.775 77.4607C109.77 77.4371 109.763 77.4135 109.757 77.3899C109.746 77.351 109.733 77.3121 109.719 77.2732C109.714 77.2579 109.71 77.2413 109.704 77.226C109.703 77.2232 109.701 77.2204 109.7 77.2163C109.667 77.126 109.629 77.0399 109.586 76.9552C109.582 76.9482 109.581 76.9399 109.576 76.9329C109.574 76.9274 109.57 76.9232 109.567 76.9177C109.528 76.8441 109.486 76.7732 109.442 76.7052C109.438 76.6996 109.435 76.6941 109.432 76.6885C109.411 76.6579 109.39 76.6288 109.369 76.5996L106.757 73.0371C106.782 73.0718 106.806 73.1079 106.829 73.144C106.874 73.2135 106.917 73.2843 106.954 73.3566C106.961 73.3691 106.967 73.3816 106.974 73.3941C107.017 73.4788 107.054 73.5663 107.088 73.6552C107.094 73.6746 107.1 73.6927 107.107 73.7121C107.119 73.751 107.133 73.7899 107.145 73.8288C107.151 73.8524 107.157 73.876 107.163 73.8996C107.172 73.9371 107.181 73.9746 107.189 74.0135C107.194 74.0385 107.199 74.0621 107.203 74.0871C107.21 74.1288 107.217 74.1704 107.222 74.2121C107.225 74.2357 107.229 74.2593 107.231 74.2829C107.235 74.3302 107.239 74.3774 107.24 74.4246C107.242 74.4441 107.243 74.4635 107.243 74.4829C107.244 74.5496 107.244 74.6177 107.242 74.6857C107.242 74.6968 107.24 74.7079 107.239 74.7204C107.236 74.7774 107.232 74.8343 107.225 74.8927C107.222 74.9163 107.218 74.9399 107.215 74.9635C107.208 75.0093 107.201 75.0566 107.193 75.1024C107.189 75.1288 107.183 75.1552 107.178 75.1816C107.168 75.226 107.157 75.2718 107.146 75.3177C107.139 75.3441 107.132 75.3704 107.125 75.3968C107.111 75.4454 107.096 75.4941 107.079 75.5427C107.071 75.5649 107.064 75.5885 107.056 75.6107C107.031 75.6815 107.001 75.7538 106.971 75.8246L93.2153 107.279C93.182 107.355 93.1459 107.429 93.107 107.502C93.1042 107.508 93.1014 107.512 93.1001 107.518C93.0625 107.589 93.0223 107.657 92.9806 107.725C92.9237 107.816 92.8639 107.904 92.8001 107.99C92.782 108.015 92.7626 108.037 92.7445 108.061C92.7014 108.115 92.6584 108.169 92.6126 108.222C92.5889 108.25 92.5639 108.276 92.5389 108.302C92.4973 108.347 92.4542 108.391 92.4098 108.434C92.3834 108.459 92.3584 108.486 92.332 108.509C92.2848 108.552 92.2362 108.594 92.1876 108.636C92.1626 108.657 92.1389 108.677 92.1139 108.698C92.0389 108.759 91.9612 108.818 91.8806 108.872C91.7973 108.929 91.7112 108.982 91.6237 109.033C91.6001 109.047 91.5751 109.059 91.5501 109.073C91.4751 109.115 91.3987 109.154 91.3209 109.19C91.2903 109.205 91.2584 109.219 91.2278 109.233C91.1987 109.245 91.1695 109.258 91.1403 109.269C91.0931 109.288 91.0459 109.307 90.9987 109.323C90.9681 109.334 90.9389 109.344 90.9084 109.355C90.8612 109.37 90.8139 109.386 90.7667 109.398C90.7334 109.408 90.7014 109.418 90.6681 109.426C90.6195 109.438 90.5695 109.45 90.5195 109.461C90.4876 109.468 90.4556 109.475 90.4251 109.482C90.3709 109.491 90.3153 109.5 90.2598 109.507C90.2334 109.511 90.2056 109.515 90.1792 109.518C90.0973 109.527 90.0139 109.534 89.932 109.537L43.0723 109.54C42.1264 109.54 41.3237 109.136 40.8403 108.477L43.4528 112.04C43.9362 112.698 44.7389 113.102 45.6848 113.102L92.5445 113.1C92.6278 113.097 92.7098 113.09 92.7917 113.08C92.8195 113.077 92.8459 113.072 92.8723 113.069C92.9278 113.062 92.982 113.054 93.0362 113.044C93.0681 113.038 93.1001 113.03 93.132 113.023C93.182 113.012 93.2306 113.002 93.2792 112.988C93.3126 112.98 93.3459 112.97 93.3792 112.961C93.4084 112.952 93.4376 112.945 93.4667 112.936C93.4848 112.93 93.5028 112.923 93.5209 112.918C93.5514 112.908 93.5806 112.897 93.6112 112.886C93.6584 112.869 93.7056 112.85 93.7528 112.832C93.782 112.819 93.8112 112.808 93.8403 112.795C93.8556 112.789 93.8709 112.783 93.8848 112.777C93.9014 112.77 93.9167 112.761 93.9334 112.752C94.0112 112.716 94.0876 112.677 94.1626 112.636C94.1792 112.627 94.1959 112.62 94.2112 112.611C94.2195 112.605 94.2278 112.6 94.2362 112.595C94.407 112.497 94.5709 112.384 94.7251 112.261C94.7306 112.257 94.7376 112.252 94.7431 112.247C94.7626 112.232 94.7792 112.213 94.7987 112.198C94.8473 112.157 94.8959 112.115 94.9431 112.072C94.9528 112.062 94.9639 112.054 94.9751 112.044C94.9917 112.029 95.0056 112.012 95.0223 111.995C95.0667 111.952 95.1098 111.908 95.1514 111.863C95.1653 111.848 95.1792 111.836 95.1931 111.82C95.2042 111.808 95.2139 111.795 95.2251 111.783C95.2709 111.73 95.3139 111.677 95.357 111.622C95.3709 111.604 95.3862 111.587 95.4001 111.569C95.4042 111.563 95.4084 111.557 95.4139 111.55C95.4778 111.463 95.5389 111.375 95.5945 111.284C95.5973 111.28 95.6014 111.276 95.6042 111.27C95.6431 111.207 95.6792 111.143 95.7139 111.077C95.7167 111.072 95.7195 111.066 95.7223 111.061C95.7528 111.001 95.7834 110.941 95.8112 110.88C95.8181 110.866 95.8237 110.851 95.8306 110.837L109.586 79.3829C109.617 79.3121 109.645 79.2399 109.671 79.169C109.679 79.1454 109.686 79.1232 109.695 79.101C109.711 79.0524 109.726 79.0038 109.74 78.9552C109.747 78.9288 109.754 78.9024 109.761 78.876C109.772 78.8302 109.783 78.7857 109.793 78.7399C109.799 78.7135 109.804 78.6871 109.808 78.6607C109.817 78.6149 109.824 78.5677 109.831 78.5218C109.833 78.4982 109.838 78.4746 109.84 78.451C109.847 78.3927 109.851 78.3357 109.854 78.2788C109.854 78.2677 109.856 78.2566 109.857 78.2441C109.86 78.176 109.86 78.1079 109.858 78.0413C109.857 78.0246 109.856 78.0052 109.854 77.9857Z" fill="#D0D5DD"/>
<path d="M45.6848 113.415C44.6612 113.415 43.7557 112.982 43.2015 112.225L40.589 108.663L41.0932 108.293L41.0959 108.296C41.532 108.888 42.2529 109.228 43.0737 109.228L89.9334 109.225C89.9959 109.222 90.0709 109.215 90.1459 109.207C90.1584 109.206 90.1709 109.204 90.182 109.202L90.2195 109.196C90.2695 109.189 90.3195 109.182 90.3695 109.172C90.3876 109.17 90.407 109.165 90.4251 109.161L90.457 109.154C90.5015 109.145 90.5473 109.135 90.5918 109.124C90.6168 109.117 90.6404 109.11 90.6654 109.103L90.682 109.097C90.7251 109.085 90.7695 109.072 90.8126 109.057C90.8404 109.047 90.8681 109.038 90.8959 109.028C90.939 109.013 90.9834 108.996 91.0265 108.978C91.0584 108.965 91.082 108.956 91.107 108.945C91.1279 108.936 91.1459 108.927 91.1654 108.917L91.1931 108.904C91.2654 108.871 91.3348 108.835 91.4043 108.797L91.4334 108.782C91.4459 108.775 91.4598 108.768 91.4723 108.761C91.5626 108.709 91.639 108.661 91.7084 108.613C91.7765 108.565 91.8459 108.514 91.9223 108.453C91.9348 108.442 91.9487 108.432 91.9612 108.421L91.9904 108.396C92.0348 108.359 92.0793 108.32 92.1223 108.279C92.1432 108.26 92.1626 108.24 92.1834 108.221L92.1945 108.21C92.2348 108.171 92.2737 108.129 92.3126 108.089C92.3348 108.065 92.357 108.04 92.3793 108.015C92.4223 107.967 92.4612 107.918 92.5015 107.868L92.5237 107.84C92.5334 107.828 92.5432 107.815 92.5529 107.803C92.614 107.722 92.6695 107.64 92.7181 107.56C92.757 107.497 92.7932 107.435 92.8279 107.371L92.8334 107.359C92.8695 107.29 92.9029 107.222 92.932 107.153L106.688 75.6988C106.715 75.6335 106.742 75.5682 106.765 75.5043L106.786 75.4418C106.8 75.3988 106.815 75.3543 106.828 75.3099C106.833 75.2877 106.84 75.2655 106.846 75.2432C106.858 75.1974 106.868 75.1571 106.876 75.1168C106.882 75.0932 106.886 75.0696 106.89 75.046C106.899 75.0029 106.904 74.9613 106.91 74.921L106.918 74.8585C106.924 74.8071 106.928 74.7557 106.931 74.7043L106.932 74.678C106.935 74.6127 106.935 74.553 106.933 74.4932L106.931 74.4418C106.928 74.3988 106.926 74.3571 106.921 74.3168C106.92 74.3002 106.917 74.2849 106.915 74.271L106.913 74.2543C106.907 74.2168 106.901 74.1807 106.896 74.1432C106.892 74.121 106.888 74.1002 106.883 74.078C106.876 74.0446 106.868 74.0113 106.86 73.9779L106.843 73.9155C106.833 73.8821 106.822 73.8474 106.811 73.8127L106.795 73.7627C106.767 73.6877 106.735 73.6127 106.695 73.5335L106.678 73.5002C106.645 73.4363 106.608 73.3738 106.568 73.3141C106.549 73.2835 106.528 73.253 106.507 73.2238L106.506 73.221L107.01 72.8516C107.01 72.8516 107.01 72.8516 107.01 72.853L109.622 76.4141C109.646 76.4474 109.67 76.4807 109.693 76.5141L109.71 76.5405C109.758 76.6155 109.803 76.6905 109.843 76.7655C109.847 76.7724 109.851 76.7793 109.856 76.7863L109.872 76.8224C109.92 76.9168 109.958 77.0071 109.992 77.096L109.999 77.1155C110.006 77.1335 110.01 77.1474 110.014 77.1613C110.032 77.2155 110.046 77.2599 110.06 77.3043C110.067 77.328 110.072 77.3516 110.079 77.3752C110.092 77.4252 110.103 77.4668 110.111 77.5099C110.115 77.5266 110.118 77.5377 110.12 77.5488C110.122 77.5641 110.124 77.5752 110.125 77.5877C110.135 77.6391 110.142 77.6863 110.147 77.7321C110.151 77.7668 110.154 77.7891 110.157 77.8127C110.163 77.8655 110.165 77.9182 110.168 77.971L110.17 77.9891C110.171 78.0043 110.172 78.0196 110.172 78.0363C110.175 78.1113 110.175 78.1863 110.171 78.2613L110.168 78.2932C110.164 78.3627 110.16 78.4252 110.151 78.4891C110.149 78.5085 110.146 78.528 110.143 78.546L110.14 78.5668C110.133 78.6168 110.125 78.6682 110.115 78.7196C110.11 78.7488 110.104 78.778 110.099 78.8057C110.088 78.8557 110.076 78.9057 110.064 78.9557C110.057 78.9849 110.049 79.0141 110.04 79.0432C110.025 79.096 110.008 79.1488 109.99 79.2029L109.983 79.2224C109.978 79.2405 109.971 79.2599 109.964 79.278C109.936 79.3543 109.906 79.4321 109.872 79.5099L96.0945 111.013C96.0654 111.078 96.032 111.143 95.9987 111.207L95.9904 111.224C95.9515 111.296 95.9126 111.367 95.8695 111.435L95.8557 111.456C95.7959 111.553 95.732 111.646 95.6626 111.738C95.6612 111.74 95.6557 111.749 95.6487 111.759C95.6376 111.774 95.6251 111.788 95.6126 111.802L95.6015 111.815C95.5543 111.875 95.507 111.934 95.4584 111.989C95.4445 112.007 95.4348 112.018 95.4237 112.031C95.4126 112.043 95.4015 112.054 95.389 112.067L95.3793 112.077C95.3334 112.125 95.2876 112.172 95.2404 112.22L95.2279 112.232C95.2154 112.246 95.2029 112.259 95.189 112.271C95.1793 112.281 95.1695 112.289 95.1598 112.297C95.1043 112.349 95.0515 112.393 94.9987 112.438L94.982 112.452C94.9682 112.464 94.9529 112.478 94.9376 112.489L94.914 112.507C94.7529 112.636 94.5751 112.757 94.3904 112.865C94.3834 112.87 94.3737 112.877 94.364 112.882C94.3487 112.89 94.3348 112.897 94.3195 112.906C94.2307 112.954 94.1473 112.996 94.064 113.036C94.0404 113.049 94.0265 113.056 94.0112 113.063C94.0001 113.068 93.9876 113.072 93.9751 113.078C93.9307 113.097 93.8987 113.11 93.8668 113.122C93.8168 113.143 93.7654 113.163 93.714 113.181C93.682 113.192 93.6487 113.204 93.6168 113.215L93.6001 113.221C93.5862 113.227 93.5723 113.231 93.5584 113.235C93.5376 113.242 93.5154 113.247 93.4931 113.254L93.4473 113.267C93.4168 113.275 93.3862 113.285 93.3557 113.292C93.3029 113.306 93.2487 113.317 93.1959 113.329L93.1695 113.335C93.1445 113.34 93.1181 113.346 93.0931 113.352C93.0334 113.363 92.9737 113.371 92.914 113.379L92.8876 113.384C92.8668 113.386 92.8459 113.39 92.8251 113.392C92.7306 113.403 92.6418 113.41 92.5543 113.413L45.6848 113.415ZM42.1432 109.725L43.7057 111.854C44.1418 112.449 44.8626 112.789 45.6848 112.789L92.5445 112.786C92.607 112.784 92.682 112.777 92.757 112.768C92.7695 112.767 92.782 112.765 92.7945 112.763L92.8307 112.757C92.8807 112.75 92.9306 112.743 92.9806 112.734C93.0001 112.729 93.0182 112.725 93.0362 112.721L93.0668 112.714C93.1112 112.704 93.157 112.695 93.2015 112.684C93.2265 112.677 93.2515 112.67 93.2751 112.663L93.3334 112.646C93.3473 112.642 93.3598 112.639 93.3737 112.635L93.4237 112.617C93.4501 112.609 93.4779 112.597 93.5057 112.588C93.5487 112.572 93.5932 112.556 93.6362 112.538C93.664 112.527 93.6904 112.515 93.7168 112.504L93.7654 112.484C93.7779 112.477 93.7904 112.47 93.8029 112.464C93.8737 112.431 93.9445 112.395 94.014 112.357C94.0265 112.35 94.039 112.345 94.0515 112.338C94.064 112.331 94.0723 112.325 94.082 112.32C94.2404 112.228 94.3918 112.124 94.532 112.011L94.5668 111.984C94.5779 111.974 94.589 111.964 94.6001 111.954C94.6445 111.917 94.6904 111.878 94.7334 111.838C94.7418 111.831 94.7501 111.822 94.7598 111.815L94.7765 111.799C94.7862 111.789 94.7959 111.779 94.8056 111.77C94.8473 111.729 94.8862 111.689 94.9251 111.647C94.9334 111.638 94.9431 111.628 94.9529 111.618L94.9626 111.607C94.9751 111.592 94.9834 111.582 94.9918 111.572C95.0334 111.524 95.0737 111.475 95.114 111.425C95.1223 111.414 95.132 111.403 95.1418 111.39L95.1529 111.377C95.1529 111.375 95.1584 111.367 95.1654 111.359C95.2251 111.278 95.2807 111.196 95.3307 111.115L95.3432 111.097C95.3779 111.04 95.4098 110.985 95.4404 110.928L95.4487 110.91C95.4751 110.859 95.5029 110.804 95.5279 110.749L95.5459 110.71L109.301 79.2557C109.329 79.1904 109.356 79.1266 109.378 79.0613L109.399 78.9988C109.414 78.9543 109.428 78.9099 109.44 78.8668C109.447 78.8432 109.453 78.8196 109.46 78.796C109.471 78.7543 109.481 78.7141 109.489 78.6738C109.495 78.6502 109.499 78.6266 109.503 78.603C109.511 78.5613 109.517 78.5196 109.522 78.478L109.531 78.4141C109.536 78.3627 109.54 78.3127 109.543 78.2613L109.545 78.2377C109.547 78.1696 109.547 78.1099 109.546 78.0516L109.543 78.0002C109.54 77.9585 109.538 77.9168 109.533 77.8752C109.532 77.8585 109.529 77.8404 109.526 77.8238C109.52 77.7752 109.514 77.7391 109.508 77.7016C109.507 77.6918 109.506 77.6821 109.504 77.671C109.501 77.6557 109.499 77.646 109.496 77.6349C109.489 77.6043 109.482 77.571 109.472 77.5377C109.465 77.5113 109.461 77.4932 109.456 77.4766C109.446 77.4418 109.435 77.4071 109.422 77.3724L109.413 77.3405C109.41 77.3335 109.407 77.3266 109.404 77.3196C109.378 77.2474 109.346 77.1738 109.306 77.0946L109.289 77.0613C109.257 76.9988 109.22 76.9363 109.179 76.8752L109.165 76.853C109.15 76.8307 109.133 76.8071 109.115 76.7821L107.556 74.6557C107.556 74.6696 107.554 74.6835 107.554 74.696L107.551 74.728C107.547 74.7974 107.543 74.8613 107.535 74.9252C107.532 74.9446 107.529 74.9641 107.526 74.9835L107.524 75.0043C107.517 75.0557 107.508 75.1071 107.499 75.1585C107.493 75.1863 107.488 75.2154 107.482 75.2446C107.471 75.2946 107.46 75.3446 107.447 75.3946C107.439 75.4266 107.432 75.4543 107.424 75.4807C107.408 75.5335 107.392 75.5863 107.374 75.6405L107.365 75.6641C107.36 75.6807 107.354 75.6988 107.347 75.7155C107.32 75.7932 107.289 75.871 107.254 75.9488L93.4987 107.403C93.464 107.481 93.4265 107.561 93.3806 107.647L93.3751 107.66C93.332 107.742 93.2876 107.815 93.2432 107.889C93.1848 107.985 93.1182 108.081 93.0473 108.177C93.0334 108.195 93.0195 108.213 93.0056 108.231L92.9876 108.254C92.9404 108.314 92.8932 108.372 92.8432 108.429C92.8181 108.459 92.7918 108.488 92.764 108.517C92.7181 108.565 92.6723 108.613 92.6251 108.66L92.614 108.671C92.5904 108.695 92.5654 108.718 92.5418 108.742C92.4904 108.789 92.439 108.834 92.3862 108.878L92.3626 108.899C92.3445 108.914 92.3265 108.931 92.307 108.945C92.2182 109.015 92.1362 109.077 92.0557 109.132C91.9737 109.189 91.8834 109.246 91.7793 109.306C91.7612 109.317 91.7418 109.327 91.7237 109.336L91.7001 109.349C91.6195 109.393 91.5362 109.436 91.4515 109.475L91.4265 109.486C91.4015 109.499 91.3751 109.51 91.3501 109.522C91.3223 109.535 91.2918 109.547 91.2626 109.559C91.2043 109.582 91.1529 109.602 91.1015 109.621C91.0695 109.632 91.0362 109.645 91.0043 109.656C90.9529 109.672 90.9015 109.688 90.8501 109.703L90.8334 109.707C90.8029 109.715 90.7723 109.725 90.7432 109.732C90.6904 109.746 90.6362 109.757 90.582 109.77L90.5543 109.775C90.5293 109.781 90.5043 109.786 90.4779 109.79C90.4182 109.802 90.3584 109.81 90.2987 109.818L90.2723 109.822C90.2515 109.825 90.232 109.828 90.2112 109.831C90.1168 109.842 90.0279 109.849 89.9404 109.852L43.0682 109.854C42.7473 109.853 42.4362 109.809 42.1432 109.725ZM95.8543 111.457L95.8529 111.46C95.8543 111.459 95.8543 111.459 95.8543 111.457ZM95.3459 111.095C95.3459 111.096 95.3445 111.096 95.3445 111.097L95.3459 111.095Z" fill="#F9FAFB"/>
<path d="M107.347 55.8867L104.735 52.3242L102.49 66.3978L101.6 71.9728H104.525C104.611 71.9728 104.697 71.9756 104.779 71.9825L105.103 69.9589V69.9576L107.347 55.8867Z" fill="#E4E7EC"/>
<path d="M105.043 72.3199L104.754 72.2963C104.681 72.2907 104.603 72.2865 104.525 72.2865H101.233L104.543 51.5352L107.676 55.806L105.433 69.874L105.413 70.0102L105.043 72.3199ZM101.967 71.6615H104.515L104.795 69.9115L107.018 55.9671L104.925 53.1129L101.967 71.6615Z" fill="#F9FAFB"/>
<path d="M106.974 75.8212L93.2181 107.275C92.6528 108.568 91.3195 109.482 89.932 109.538L43.0723 109.541C41.6376 109.541 40.532 108.61 40.3723 107.274L35.9917 70.2462C35.7626 68.3059 37.582 66.4004 39.6653 66.4004H56.6945C58.1292 66.4004 59.2376 67.3282 59.3959 68.6643L59.5195 69.7101C59.6778 71.0476 60.7834 71.9768 62.2195 71.9768H104.526C104.613 71.9768 104.699 71.9796 104.781 71.9865C106.707 72.1337 107.786 73.9615 106.974 75.8212Z" fill="#D0D5DD"/>
<path d="M43.0709 109.854C41.4765 109.854 40.239 108.808 40.0612 107.312L35.6806 70.2818C35.5667 69.3165 35.9126 68.2984 36.632 67.4901C37.4251 66.5984 38.5306 66.0859 39.6653 66.0859H56.6945C58.2903 66.0859 59.5292 67.1304 59.7056 68.6262L59.8292 69.672C59.9681 70.8443 60.9501 71.6623 62.2181 71.6623H104.525C104.621 71.6623 104.714 71.6665 104.806 71.6734C105.811 71.7512 106.667 72.2582 107.151 73.0637C107.656 73.9012 107.695 74.9526 107.261 75.9457L93.5056 107.4C92.8917 108.804 91.4612 109.789 89.9459 109.85L43.0709 109.854ZM39.6653 66.7123C38.7223 66.7123 37.764 67.1582 37.0987 67.9054C36.4987 68.5804 36.2084 69.4193 36.3015 70.2082L40.682 107.239C40.8209 108.411 41.8029 109.229 43.0709 109.229L89.9306 109.226C91.1806 109.176 92.4181 108.322 92.9306 107.151L106.688 75.697C107.039 74.8915 107.013 74.0498 106.615 73.3873C106.236 72.7568 105.56 72.3595 104.757 72.2984C104.682 72.2929 104.604 72.2887 104.526 72.2887H62.2181C60.6237 72.2887 59.3862 71.2429 59.2084 69.7471L59.0848 68.7012C58.9459 67.5304 57.9626 66.7123 56.6945 66.7123H39.6653Z" fill="#F9FAFB"/>
<path d="M101.6 72.2867H62.2181C60.6236 72.2867 59.3847 71.2423 59.207 69.7464L59.0847 68.7006C58.9459 67.5298 57.9625 66.7117 56.6945 66.7117H45.4903C45.3986 66.7117 45.3125 66.6714 45.2528 66.602C45.1931 66.5326 45.1681 66.4409 45.182 66.3506L45.8056 62.4367C45.8292 62.2853 45.9611 62.1728 46.1139 62.1728H54.0056L56.4153 47.0617H48.6236C48.532 47.0617 48.4459 47.0214 48.3861 46.952C48.3264 46.8826 48.3014 46.7909 48.3153 46.7006L49.7681 37.5881C49.7917 37.4367 49.9236 37.3242 50.0764 37.3242H91.85C91.9403 37.3242 92.025 37.3631 92.0847 37.4312L92.3042 37.6812C92.3653 37.7506 92.3931 37.8451 92.3778 37.9367L90.1347 52.0117H104.733C104.825 52.0117 104.911 52.052 104.971 52.1214C105.031 52.1909 105.056 52.2826 105.042 52.3728L101.908 72.0228C101.885 72.1756 101.754 72.2867 101.6 72.2867ZM45.857 66.0867H56.6959C58.2903 66.0867 59.5292 67.1312 59.707 68.627L59.8292 69.6728C59.9681 70.8437 60.9514 71.6617 62.2195 71.6617H101.333L104.368 52.6367H89.7695C89.6778 52.6367 89.5917 52.5964 89.532 52.527C89.4723 52.4576 89.4473 52.3659 89.4611 52.2756L91.7389 37.9826L91.7098 37.9492H50.3445L48.9903 46.4367H56.782C56.8736 46.4367 56.9597 46.477 57.0195 46.5464C57.0792 46.6159 57.1042 46.7076 57.0903 46.7978L54.5806 62.5339C54.557 62.6853 54.425 62.7978 54.2722 62.7978H46.3806L45.857 66.0867ZM86.575 68.3409H60.8861C60.582 68.3409 60.3014 68.2173 60.1167 68.0006C59.9347 67.7867 59.8597 67.5076 59.9056 67.2159C59.9972 66.6395 60.5347 66.1881 61.1292 66.1881H86.8181C87.1209 66.1881 87.4014 66.3117 87.5847 66.527C87.7681 66.7409 87.8431 67.0214 87.7959 67.3145C87.7042 67.8895 87.1681 68.3409 86.575 68.3409ZM61.1292 66.8131C60.8445 66.8131 60.5667 67.0423 60.5236 67.3145C60.5056 67.4242 60.5306 67.5214 60.5931 67.5951C60.6597 67.6728 60.7639 67.7159 60.8861 67.7159H86.575C86.8597 67.7159 87.1361 67.4867 87.1792 67.2159C87.1973 67.1062 87.1722 67.0062 87.1097 66.9326C87.0431 66.8548 86.9403 66.8131 86.8181 66.8131H61.1292ZM87.3917 63.2214H61.7014C61.3972 63.2214 61.1181 63.0978 60.9334 62.8812C60.75 62.6673 60.675 62.3881 60.7222 62.0951C60.8139 61.5201 61.3514 61.0687 61.9459 61.0687H87.6347C87.9389 61.0687 88.2181 61.1923 88.4028 61.4076C88.5848 61.6214 88.6597 61.9006 88.6139 62.1937C88.5209 62.7701 87.9847 63.2214 87.3917 63.2214ZM61.9459 61.6937C61.6611 61.6937 61.3834 61.9228 61.3403 62.1937C61.3222 62.3048 61.3472 62.402 61.4097 62.4756C61.4764 62.5534 61.5806 62.5964 61.7028 62.5964H87.3917C87.6764 62.5964 87.9528 62.3673 87.9959 62.0951C88.0139 61.9839 87.9903 61.8867 87.9264 61.8131C87.8597 61.7353 87.757 61.6937 87.6347 61.6937H61.9459ZM88.2084 58.0992H62.5195C62.2153 58.0992 61.9347 57.9756 61.75 57.7589C61.5681 57.5451 61.4931 57.2659 61.5389 56.9742C61.6306 56.3978 62.1681 55.9464 62.7625 55.9464H88.4514C88.7542 55.9464 89.0347 56.0701 89.2181 56.2853C89.4014 56.4992 89.4764 56.7798 89.4292 57.0728C89.3375 57.6492 88.8014 58.0992 88.2084 58.0992ZM62.7625 56.5714C62.4778 56.5714 62.2 56.8006 62.157 57.0728C62.1389 57.1826 62.1625 57.2798 62.2264 57.3534C62.2931 57.4312 62.3972 57.4742 62.5195 57.4742H88.2084C88.4931 57.4742 88.7695 57.2451 88.8125 56.9742C88.8306 56.8645 88.8056 56.7645 88.7431 56.6909C88.6764 56.6131 88.5736 56.5714 88.4514 56.5714H62.7625Z" fill="#F9FAFB"/>
<path d="M40.2514 46.4961L37.6611 62.7378H54.4889L57.0792 46.4961H40.2514ZM54.6556 48.5294L52.7139 60.703H40.0806L42.0222 48.5294H54.6556Z" fill="#D0D5DD"/>
<path d="M92.0722 37.8887L104.736 52.3248H89.7694L92.0722 37.8887Z" fill="#D0D5DD"/>
<path d="M104.736 52.637H89.7695C89.6778 52.637 89.5917 52.5967 89.532 52.5273C89.4723 52.4578 89.4473 52.3661 89.4611 52.2759L91.7639 37.8398C91.7834 37.7203 91.8695 37.6217 91.9861 37.5884C92.1028 37.555 92.2278 37.5911 92.3084 37.6828L104.972 52.1189C105.053 52.2106 105.072 52.3425 105.022 52.4536C104.969 52.5661 104.858 52.637 104.736 52.637ZM90.1361 52.012H104.046L92.275 38.5953L90.1361 52.012Z" fill="#F9FAFB"/>
<path d="M89.1737 56.3239C88.9987 56.1184 88.7417 56.0059 88.4528 56.0059H62.7625C62.1973 56.0059 61.6848 56.435 61.5987 56.9836C61.5542 57.2586 61.625 57.5197 61.7959 57.7211C61.9695 57.9239 62.2334 58.0406 62.5195 58.0406H88.2084C88.7737 58.0406 89.2834 57.6114 89.3709 57.0642C89.4153 56.7878 89.3445 56.5253 89.1737 56.3239Z" fill="#D0D5DD"/>
<path d="M87.6348 61.1289H61.9459C61.3806 61.1289 60.8695 61.5581 60.782 62.1053C60.7376 62.3803 60.8084 62.6428 60.9792 62.8428C61.1528 63.0456 61.4153 63.1622 61.7028 63.1622H87.3917C87.957 63.1622 88.4667 62.7331 88.5542 62.1845C88.5987 61.9095 88.5278 61.647 88.357 61.447C88.1848 61.2442 87.9209 61.1289 87.6348 61.1289Z" fill="#D0D5DD"/>
<path d="M86.8181 66.248H61.1292C60.564 66.248 60.0515 66.6772 59.9654 67.2258C59.9209 67.5008 59.9917 67.7619 60.1626 67.9633C60.3362 68.1661 60.6001 68.2828 60.8862 68.2828H86.5751C87.1404 68.2828 87.6501 67.8536 87.7376 67.3064C87.782 67.0314 87.7112 66.7689 87.5404 66.5675C87.364 66.3605 87.1084 66.248 86.8181 66.248Z" fill="#D0D5DD"/>
<path d="M115.818 54.5645L116.128 56.4992C116.314 57.6589 117.11 58.5672 118.256 58.9256L120.168 59.5214L118.065 60.1172C116.807 60.4756 115.721 61.3825 115.164 62.5436L114.238 64.4783L113.926 62.5436C113.74 61.3839 112.945 60.4756 111.799 60.1172L109.888 59.5214L111.989 58.9256C113.247 58.5672 114.333 57.6603 114.89 56.4992L115.818 54.5645Z" fill="#D0D5DD"/>
<path d="M46.0958 35.4648L46.3333 36.9482C46.4764 37.8371 47.0861 38.5343 47.9653 38.8079L49.4319 39.2648L47.8194 39.7232C46.8541 39.9968 46.0222 40.6926 45.5944 41.5815L44.8833 43.0662L44.6458 41.5815C44.5028 40.6926 43.8916 39.9968 43.0139 39.7232L41.5486 39.2648L43.1597 38.8079C44.125 38.5343 44.9569 37.8371 45.3847 36.9482L46.0958 35.4648Z" fill="#D0D5DD"/>
<path d="M103.497 100.947L103.629 101.775C103.71 102.269 104.05 102.658 104.539 102.811L105.356 103.067L104.458 103.322C103.92 103.475 103.456 103.864 103.218 104.358L102.822 105.186L102.69 104.358C102.61 103.864 102.271 103.475 101.782 103.322L100.965 103.067L101.864 102.811C102.403 102.658 102.865 102.269 103.103 101.775L103.497 100.947Z" fill="#D0D5DD"/>
<path d="M35.0792 90.0195L35.2111 90.8459C35.2903 91.3418 35.6306 91.7293 36.1209 91.882L36.9375 92.1376L36.0403 92.3931C35.5014 92.5459 35.0375 92.9348 34.8 93.4306L34.4042 94.257L34.2722 93.4306C34.1945 92.9348 33.8528 92.5473 33.3639 92.3931L32.5472 92.1376L33.4445 91.882C33.9834 91.7306 34.4472 91.3418 34.6834 90.8459L35.0792 90.0195Z" fill="#D0D5DD"/>
</svg>
