<?xml version="1.0" encoding="iso-8859-1"?>
<!-- Uploaded to: SVG Repo, www.svgrepo.com, Generator: SVG Repo Mixer Tools -->
<svg fill="#fff" height="800px" width="800px" version="1.1" id="Layer_1" xmlns="http://www.w3.org/2000/svg" xmlns:xlink="http://www.w3.org/1999/xlink" 
	 viewBox="0 0 512 512" xml:space="preserve">
<g>
	<g>
		<path d="M256.001,376.777l-59.861,18.418l35.828,99.892C235.605,505.234,245.223,512,256.001,512s20.394-6.768,24.033-16.913
			l35.828-99.89L256.001,376.777z"/>
	</g>
</g>
<g>
	<g>
		<path d="M230.466,330.68v-40.71V0L13.005,351.285c-5.6,9.047-5.004,20.619,1.5,29.045c4.919,6.37,12.44,9.931,20.214,9.931
			c2.502,0,5.028-0.369,7.505-1.132l136.656-42.048l51.614-15.882C230.488,331.025,230.466,330.857,230.466,330.68z"/>
	</g>
</g>
<g>
	<g>
		<path d="M498.995,351.285L281.534,0v289.97v40.71c0,0.177-0.022,0.346-0.027,0.519l51.614,15.882l136.656,42.048
			c2.477,0.763,5.003,1.132,7.505,1.132c7.772,0,15.293-3.561,20.214-9.931C503.998,371.905,504.596,360.332,498.995,351.285z"/>
	</g>
</g>
</svg>